<?xml version="1.0" encoding="iso-8859-1"?>
<!-- Generator: Adobe Illustrator 19.0.0, SVG Export Plug-In . SVG Version: 6.00 Build 0)  -->
<svg xmlns="http://www.w3.org/2000/svg" xmlns:xlink="http://www.w3.org/1999/xlink" version="1.1" id="Capa_1" x="0px" y="0px" viewBox="0 0 512 512" style="enable-background:new 0 0 512 512;" xml:space="preserve" width="512" height="512">
<g>
	<circle style="fill:#CCF49F;" cx="396.351" cy="115.613" r="115.613"/>
	<path style="fill:#FFFFFF;" d="M375.706,175.484c-2.645,0-5.282-1.008-7.298-3.024l-37.161-37.161   c-4.032-4.032-4.032-10.565,0-14.597s10.565-4.032,14.597,0l29.863,29.863l79.411-79.411c4.032-4.032,10.565-4.032,14.597,0   c4.032,4.032,4.032,10.565,0,14.597l-86.71,86.71C380.989,174.476,378.351,175.484,375.706,175.484z"/>
	<path style="fill:#ECBD83;" d="M236.028,188.418l-77.079,77.079c7.74-7.74,7.74-20.289,0-28.029c-5.16-5.16-13.526-5.16-18.686,0   l-63.065,63.065c-14.811,14.811-17.453,37.159-7.971,54.685l-37.576,37.576l84.086,84.086l31.132-31.132   c6.476-6.476,13.641-12.224,21.368-17.14l28.136-17.905c7.727-4.917,14.892-10.665,21.368-17.141l41.643-41.643   c6.45-6.45,6.45-16.908,0-23.357c-6.45-6.45-16.907-6.45-23.357,0l5.839-5.839c6.45-6.45,6.45-16.907,0-23.357   c-6.45-6.45-16.907-6.45-23.357,0l5.839-5.839c6.45-6.45,6.45-16.908,0-23.357c-6.45-6.45-16.907-6.45-23.357,0l58.393-58.393   c6.45-6.45,6.45-16.907,0-23.357C252.935,181.968,242.478,181.968,236.028,188.418z"/>
	<path style="fill:#E2A975;" d="M161.049,240.04l-47.647,47.647c-3.225,3.225-3.225,8.454,0,11.679   c3.225,3.225,8.454,3.225,11.679,0l33.868-33.868C165.888,258.557,166.554,247.779,161.049,240.04z"/>
	<path style="fill:#E2A975;" d="M259.385,188.418l-87.59,87.59c-3.225,3.225-3.225,8.454,0,11.679c3.225,3.225,8.454,3.225,11.679,0   l17.518-17.518l58.393-58.393C265.835,205.325,265.835,194.868,259.385,188.418z"/>
	<path style="fill:#E2A975;" d="M189.313,316.883c3.225,3.225,8.454,3.225,11.679,0l17.518-17.518l5.839-5.839   c6.45-6.45,6.45-16.908,0-23.357l-35.036,35.036C186.088,308.43,186.088,313.658,189.313,316.883z"/>
	<path style="fill:#E2A975;" d="M206.831,346.08c3.225,3.225,8.454,3.225,11.679,0l17.518-17.518l5.839-5.839   c6.45-6.45,6.45-16.907,0-23.357l-35.036,35.036C203.606,337.626,203.606,342.855,206.831,346.08z"/>
	<path style="fill:#E2A975;" d="M168.233,428.611l28.144-17.911c7.725-4.916,14.889-10.663,21.364-17.138l41.643-41.643   c6.45-6.45,6.45-16.908,0-23.357l-53.322,53.322c-5.623,5.623-11.844,10.613-18.553,14.882l-28.14,17.908   c-8.744,5.565-16.853,12.069-24.182,19.398l-0.007,0.007c-4.289,4.289-11.243,4.289-15.533,0l-64.641-64.641l-23.357,23.357   l84.086,84.086l31.132-31.132C153.344,439.274,160.508,433.527,168.233,428.611z"/>
	<path style="fill:#CCF49F;" d="M130.92,480.385l-29.197,29.197c-3.225,3.225-8.454,3.225-11.679,0l-87.59-87.59   c-3.225-3.225-3.225-8.454,0-11.679l29.197-29.197c3.225-3.225,8.454-3.225,11.679,0l87.59,87.59   C134.145,471.931,134.145,477.16,130.92,480.385z"/>
	<path style="fill:#B3E59F;" d="M107.562,480.385c-6.45,6.45-16.907,6.45-23.357,0L8.294,404.473l-5.839,5.839   c-3.225,3.225-3.225,8.454,0,11.679l87.59,87.59c3.225,3.225,8.454,3.225,11.679,0l29.197-29.197c3.225-3.225,3.225-8.454,0-11.679   l-5.839-5.839L107.562,480.385z"/>
	<path style="fill:#B3E59F;" d="M412.868,214.71c-63.851,0-115.613-51.762-115.613-115.613c0-27.718,9.807-53.204,26.071-73.12   c-25.962,21.201-42.587,53.503-42.587,89.636c0,63.851,51.762,115.613,115.613,115.613c36.133,0,68.442-16.634,89.643-42.596   C466.078,204.893,440.585,214.71,412.868,214.71z"/>
</g>















</svg>
